<?xml version="1.0" encoding="UTF-8" standalone="no"?>
<!DOCTYPE svg PUBLIC "-//W3C//DTD SVG 1.1//EN" "http://www.w3.org/Graphics/SVG/1.1/DTD/svg11.dtd">
<svg width="100%" height="100%" viewBox="0 0 800 800" version="1.1" xmlns="http://www.w3.org/2000/svg" xmlns:xlink="http://www.w3.org/1999/xlink" xml:space="preserve" xmlns:serif="http://www.serif.com/" style="fill-rule:evenodd;clip-rule:evenodd;stroke-linecap:round;stroke-linejoin:round;stroke-miterlimit:1.5;">
    <g transform="matrix(1.925,0,0,2.5,-601,-1325)">
        <path d="M720,615C720,573.606 676.355,540 622.597,540L417.403,540C363.645,540 320,573.606 320,615L320,765C320,806.394 363.645,840 417.403,840L622.597,840C676.355,840 720,806.394 720,765L720,615Z" style="stroke:black;stroke-width:2.72px;"/>
    </g>
    <g transform="matrix(0.644794,0,0,0.644794,-98.7716,103.041)">
        <path d="M389,416L431,416L440,446C440,446 457.643,452.876 458,454C458,454 472.782,462.571 473,464C473,464 484.632,474.747 485,476C485,476 490.371,481.946 490.5,482.5C490.5,482.5 484.858,470.675 484.5,470C484.5,470 476.066,453.847 475,451C475,451 469.453,438.899 469,438C468.547,437.101 464.382,426.339 463.548,424C462.715,421.661 458.939,413.168 458.494,411C458.05,408.832 438.127,350.547 437.598,346.045C437.598,346.045 417.206,258.915 417.206,253.089C417.206,253.089 410.21,204.115 410,200C410,200 403.924,249.396 402,252C402,252 396.195,286.447 395,289C393.805,291.553 386.025,333.057 385,334C385,334 375.076,372.887 373,374C373,374 359.483,418.616 358,420C358,420 339.314,463.057 338,464L329,483C329,483 336.944,472.813 340.5,470C344.056,467.187 350.264,460.154 354.5,458.5C354.5,458.5 364.489,451.228 367,451C367,451 377.352,446.857 379,446.5L389,416Z" style="fill:white;"/>
        <g transform="matrix(1,0,0,1.17536,0,-64.358)">
            <path d="M409.75,340.183C409.75,340.183 404.901,365.682 404,367L417,367C417,367 410.022,341.658 409.75,340.183Z"/>
        </g>
    </g>
    <g transform="matrix(1,0,0,0.5,15,220)">
        <rect x="250" y="330" width="150" height="30" style="fill:white;"/>
    </g>
    <g transform="matrix(0.875,0,0,0.875,120.25,10.25)">
        <circle cx="110" cy="110" r="20" style="fill:rgb(0,155,10);stroke:black;stroke-width:6.93px;"/>
    </g>
    <g transform="matrix(0.875,0,0,0.875,21.25,11.25)">
        <circle cx="110" cy="110" r="20" style="fill:rgb(255,56,33);stroke:black;stroke-width:6.93px;"/>
    </g>
    <g transform="matrix(0.875,0,0,0.875,71.25,10.75)">
        <circle cx="110" cy="110" r="20" style="fill:rgb(255,242,55);stroke:black;stroke-width:6.93px;"/>
    </g>
</svg>
